<svg width="53" height="106" viewBox="0 0 53 106" fill="none" xmlns="http://www.w3.org/2000/svg">
<path d="M28.432 1.49105L50.5559 20.0903C51.6229 20.9873 51.6229 22.4416 50.5559 23.3385L47.9755 25.5078C46.9103 26.4033 45.1839 26.4051 44.1162 25.5117L26.5 10.7715L8.88397 25.5118C7.81627 26.4052 6.08989 26.4034 5.0247 25.5079L2.4443 23.3386C1.37729 22.4416 1.37729 20.9873 2.4443 20.0904L24.5682 1.49114C25.6351 0.594115 27.365 0.594115 28.432 1.49105Z" fill="#FF0000"/>
<path d="M1.48295 36.6364L20.5824 70.4886V89H31.5767V70.4886L50.6761 36.6364H38.2756L26.3352 59.1875H25.8239L13.8835 36.6364H1.48295Z" fill="black"/>
</svg>
